<svg xmlns="http://www.w3.org/2000/svg" width="548" height="176" viewBox="0 0 274 88" role="img" aria-label="5-Stunden-Limit 42 %, Reset in 2 h 14 min; Wochenlimit 18 %, Reset Mo 09:00; Cache warm, noch 42 min, Kontext 212k Tokens"><rect width="274" height="88" rx="8" fill="#1A1A19"/><svg x="16" y="16" xmlns="http://www.w3.org/2000/svg" width="242" height="56" viewBox="0 0 242 56"><g transform="translate(10 0)"><text x="0" y="11" font-family="ui-monospace, 'Cascadia Mono', Consolas, Menlo, monospace" font-size="12"><tspan fill="#D77757">5h</tspan><tspan fill="#6CC070"> 42 %</tspan><tspan fill="#9A9A9A"> &#183; in 2 h 14 min</tspan></text><rect x="0" y="16" width="3" height="8" rx="0.5" fill="#6CC070"/><rect x="4" y="16" width="3" height="8" rx="0.5" fill="#6CC070"/><rect x="8" y="16" width="3" height="8" rx="0.5" fill="#6CC070"/><rect x="12" y="16" width="3" height="8" rx="0.5" fill="#6CC070"/><rect x="16" y="16" width="3" height="8" rx="0.5" fill="#6CC070"/><rect x="20" y="16" width="3" height="8" rx="0.5" fill="#6CC070"/><rect x="24" y="16" width="3" height="8" rx="0.5" fill="#6CC070"/><rect x="28" y="16" width="3" height="8" rx="0.5" fill="#6CC070"/><rect x="32" y="16" width="3" height="8" rx="0.5" fill="#6CC070"/><rect x="36" y="16" width="3" height="8" rx="0.5" fill="#6CC070"/><rect x="40" y="16" width="3" height="8" rx="0.5" fill="#6CC070"/><rect x="44" y="16" width="3" height="8" rx="0.5" fill="#6CC070"/><rect x="48" y="16" width="3" height="8" rx="0.5" fill="#6CC070"/><rect x="52" y="16" width="3" height="8" rx="0.5" fill="#6CC070"/><rect x="56" y="16" width="3" height="8" rx="0.5" fill="#6CC070"/><rect x="60" y="16" width="3" height="8" rx="0.5" fill="#6CC070"/><rect x="64" y="16" width="3" height="8" rx="0.5" fill="#6CC070"/><rect x="68" y="16" width="3" height="8" rx="0.5" fill="#6CC070"/><rect x="72" y="16" width="3" height="8" rx="0.5" fill="#4A4A4A"/><rect x="76" y="16" width="3" height="8" rx="0.5" fill="#4A4A4A"/><rect x="80" y="16" width="3" height="8" rx="0.5" fill="#4A4A4A"/><rect x="84" y="16" width="3" height="8" rx="0.5" fill="#4A4A4A"/><rect x="88" y="16" width="3" height="8" rx="0.5" fill="#4A4A4A"/><rect x="92" y="16" width="3" height="8" rx="0.5" fill="#4A4A4A"/><rect x="96" y="16" width="3" height="8" rx="0.5" fill="#4A4A4A"/><rect x="100" y="16" width="3" height="8" rx="0.5" fill="#4A4A4A"/><rect x="104" y="16" width="3" height="8" rx="0.5" fill="#4A4A4A"/><rect x="108" y="16" width="3" height="8" rx="0.5" fill="#4A4A4A"/><rect x="112" y="16" width="3" height="8" rx="0.5" fill="#4A4A4A"/><rect x="116" y="16" width="3" height="8" rx="0.5" fill="#4A4A4A"/><rect x="120" y="16" width="3" height="8" rx="0.5" fill="#4A4A4A"/><rect x="124" y="16" width="3" height="8" rx="0.5" fill="#4A4A4A"/><rect x="128" y="16" width="3" height="8" rx="0.5" fill="#4A4A4A"/><rect x="132" y="16" width="3" height="8" rx="0.5" fill="#4A4A4A"/><rect x="136" y="16" width="3" height="8" rx="0.5" fill="#4A4A4A"/><rect x="140" y="16" width="3" height="8" rx="0.5" fill="#4A4A4A"/><rect x="144" y="16" width="3" height="8" rx="0.5" fill="#4A4A4A"/><rect x="148" y="16" width="3" height="8" rx="0.5" fill="#4A4A4A"/><rect x="152" y="16" width="3" height="8" rx="0.5" fill="#4A4A4A"/><rect x="156" y="16" width="3" height="8" rx="0.5" fill="#4A4A4A"/><rect x="160" y="16" width="3" height="8" rx="0.5" fill="#4A4A4A"/><rect x="164" y="16" width="3" height="8" rx="0.5" fill="#4A4A4A"/><rect x="168" y="16" width="3" height="8" rx="0.5" fill="#4A4A4A"/><rect x="172" y="16" width="3" height="8" rx="0.5" fill="#4A4A4A"/><text x="0" y="43" font-family="ui-monospace, 'Cascadia Mono', Consolas, Menlo, monospace" font-size="12"><tspan fill="#D77757">7d</tspan><tspan fill="#6CC070"> 18 %</tspan><tspan fill="#9A9A9A"> &#183; Mo 09:00</tspan></text><rect x="0" y="48" width="3" height="8" rx="0.5" fill="#6CC070"/><rect x="4" y="48" width="3" height="8" rx="0.5" fill="#6CC070"/><rect x="8" y="48" width="3" height="8" rx="0.5" fill="#6CC070"/><rect x="12" y="48" width="3" height="8" rx="0.5" fill="#6CC070"/><rect x="16" y="48" width="3" height="8" rx="0.5" fill="#6CC070"/><rect x="20" y="48" width="3" height="8" rx="0.5" fill="#6CC070"/><rect x="24" y="48" width="3" height="8" rx="0.5" fill="#6CC070"/><rect x="28" y="48" width="3" height="8" rx="0.5" fill="#6CC070"/><rect x="32" y="48" width="3" height="8" rx="0.5" fill="#4A4A4A"/><rect x="36" y="48" width="3" height="8" rx="0.5" fill="#4A4A4A"/><rect x="40" y="48" width="3" height="8" rx="0.5" fill="#4A4A4A"/><rect x="44" y="48" width="3" height="8" rx="0.5" fill="#4A4A4A"/><rect x="48" y="48" width="3" height="8" rx="0.5" fill="#4A4A4A"/><rect x="52" y="48" width="3" height="8" rx="0.5" fill="#4A4A4A"/><rect x="56" y="48" width="3" height="8" rx="0.5" fill="#4A4A4A"/><rect x="60" y="48" width="3" height="8" rx="0.5" fill="#4A4A4A"/><rect x="64" y="48" width="3" height="8" rx="0.5" fill="#4A4A4A"/><rect x="68" y="48" width="3" height="8" rx="0.5" fill="#4A4A4A"/><rect x="72" y="48" width="3" height="8" rx="0.5" fill="#4A4A4A"/><rect x="76" y="48" width="3" height="8" rx="0.5" fill="#4A4A4A"/><rect x="80" y="48" width="3" height="8" rx="0.5" fill="#4A4A4A"/><rect x="84" y="48" width="3" height="8" rx="0.5" fill="#4A4A4A"/><rect x="88" y="48" width="3" height="8" rx="0.5" fill="#4A4A4A"/><rect x="92" y="48" width="3" height="8" rx="0.5" fill="#4A4A4A"/><rect x="96" y="48" width="3" height="8" rx="0.5" fill="#4A4A4A"/><rect x="100" y="48" width="3" height="8" rx="0.5" fill="#4A4A4A"/><rect x="104" y="48" width="3" height="8" rx="0.5" fill="#4A4A4A"/><rect x="108" y="48" width="3" height="8" rx="0.5" fill="#4A4A4A"/><rect x="112" y="48" width="3" height="8" rx="0.5" fill="#4A4A4A"/><rect x="116" y="48" width="3" height="8" rx="0.5" fill="#4A4A4A"/><rect x="120" y="48" width="3" height="8" rx="0.5" fill="#4A4A4A"/><rect x="124" y="48" width="3" height="8" rx="0.5" fill="#4A4A4A"/><rect x="128" y="48" width="3" height="8" rx="0.5" fill="#4A4A4A"/><rect x="132" y="48" width="3" height="8" rx="0.5" fill="#4A4A4A"/><rect x="136" y="48" width="3" height="8" rx="0.5" fill="#4A4A4A"/><rect x="140" y="48" width="3" height="8" rx="0.5" fill="#4A4A4A"/><rect x="144" y="48" width="3" height="8" rx="0.5" fill="#4A4A4A"/><rect x="148" y="48" width="3" height="8" rx="0.5" fill="#4A4A4A"/><rect x="152" y="48" width="3" height="8" rx="0.5" fill="#4A4A4A"/><rect x="156" y="48" width="3" height="8" rx="0.5" fill="#4A4A4A"/><rect x="160" y="48" width="3" height="8" rx="0.5" fill="#4A4A4A"/><rect x="164" y="48" width="3" height="8" rx="0.5" fill="#4A4A4A"/><rect x="168" y="48" width="3" height="8" rx="0.5" fill="#4A4A4A"/><rect x="172" y="48" width="3" height="8" rx="0.5" fill="#4A4A4A"/><text x="204" y="11" text-anchor="middle" font-family="ui-monospace, 'Cascadia Mono', Consolas, Menlo, monospace" font-size="12" fill="#D77757">Cache</text><path d="M204.5 18.01A18 18 0 0 1 207.52 18.35" fill="none" stroke-width="4" stroke="#4A4A4A"/><path d="M208.49 18.57A18 18 0 0 1 211.36 19.57" fill="none" stroke-width="4" stroke="#4A4A4A"/><path d="M212.26 20.01A18 18 0 0 1 214.83 21.62" fill="none" stroke-width="4" stroke="#4A4A4A"/><path d="M215.61 22.24A18 18 0 0 1 217.76 24.39" fill="none" stroke-width="4" stroke="#4A4A4A"/><path d="M218.38 25.17A18 18 0 0 1 219.99 27.74" fill="none" stroke-width="4" stroke="#4A4A4A"/><path d="M220.43 28.64A18 18 0 0 1 221.43 31.51" fill="none" stroke-width="4" stroke="#4A4A4A"/><path d="M221.65 32.48A18 18 0 0 1 221.99 35.5" fill="none" stroke-width="4" stroke="#4A4A4A"/><path d="M221.99 36.5A18 18 0 0 1 221.65 39.52" fill="none" stroke-width="4" stroke="#4A4A4A"/><path d="M221.43 40.49A18 18 0 0 1 220.43 43.36" fill="none" stroke-width="4" stroke="#6CC070"/><path d="M219.99 44.26A18 18 0 0 1 218.38 46.83" fill="none" stroke-width="4" stroke="#6CC070"/><path d="M217.76 47.61A18 18 0 0 1 215.61 49.76" fill="none" stroke-width="4" stroke="#6CC070"/><path d="M214.83 50.38A18 18 0 0 1 212.26 51.99" fill="none" stroke-width="4" stroke="#6CC070"/><path d="M211.36 52.43A18 18 0 0 1 208.49 53.43" fill="none" stroke-width="4" stroke="#6CC070"/><path d="M207.52 53.65A18 18 0 0 1 204.5 53.99" fill="none" stroke-width="4" stroke="#6CC070"/><path d="M203.5 53.99A18 18 0 0 1 200.48 53.65" fill="none" stroke-width="4" stroke="#6CC070"/><path d="M199.51 53.43A18 18 0 0 1 196.64 52.43" fill="none" stroke-width="4" stroke="#6CC070"/><path d="M195.74 51.99A18 18 0 0 1 193.17 50.38" fill="none" stroke-width="4" stroke="#6CC070"/><path d="M192.39 49.76A18 18 0 0 1 190.24 47.61" fill="none" stroke-width="4" stroke="#6CC070"/><path d="M189.62 46.83A18 18 0 0 1 188.01 44.26" fill="none" stroke-width="4" stroke="#6CC070"/><path d="M187.57 43.36A18 18 0 0 1 186.57 40.49" fill="none" stroke-width="4" stroke="#6CC070"/><path d="M186.35 39.52A18 18 0 0 1 186.01 36.5" fill="none" stroke-width="4" stroke="#6CC070"/><path d="M186.01 35.5A18 18 0 0 1 186.35 32.48" fill="none" stroke-width="4" stroke="#6CC070"/><path d="M186.57 31.51A18 18 0 0 1 187.57 28.64" fill="none" stroke-width="4" stroke="#6CC070"/><path d="M188.01 27.74A18 18 0 0 1 189.62 25.17" fill="none" stroke-width="4" stroke="#6CC070"/><path d="M190.24 24.39A18 18 0 0 1 192.39 22.24" fill="none" stroke-width="4" stroke="#6CC070"/><path d="M193.17 21.62A18 18 0 0 1 195.74 20.01" fill="none" stroke-width="4" stroke="#6CC070"/><path d="M196.64 19.57A18 18 0 0 1 199.51 18.57" fill="none" stroke-width="4" stroke="#6CC070"/><path d="M200.48 18.35A18 18 0 0 1 203.5 18.01" fill="none" stroke-width="4" stroke="#6CC070"/><text x="204" y="37" text-anchor="middle" font-family="ui-monospace, 'Cascadia Mono', Consolas, Menlo, monospace" font-size="11" fill="#6CC070">42m</text><text x="204" y="46" text-anchor="middle" font-family="ui-monospace, 'Cascadia Mono', Consolas, Menlo, monospace" font-size="8" fill="#D77757">212k</text></g></svg></svg>
